<?xml version="1.0" encoding="iso-8859-1"?>
<!-- Uploaded to: SVG Repo, www.svgrepo.com, Generator: SVG Repo Mixer Tools -->
<svg height="800px" width="800px" version="1.1" id="Layer_1" xmlns="http://www.w3.org/2000/svg" xmlns:xlink="http://www.w3.org/1999/xlink" 
	 viewBox="0 0 512.004 512.004" xml:space="preserve">
<polygon style="opacity:0.41;fill:#77757E;enable-background:new    ;" points="499.475,362.972 168.233,362.972 336.315,256.003 
	"/>
<path style="fill:#ACAAB1;" d="M223.355,260.591c-137.633,0-215.751-49.946-215.751-111.556H173.45L223.355,260.591z"/>
<path style="opacity:0.41;fill:#77757E;enable-background:new    ;" d="M223.355,260.591c-137.633,0-215.751-49.946-215.751-111.556
	H173.45L223.355,260.591z"/>
<g>
	<path style="opacity:0.3;fill:#3E3B43;enable-background:new    ;" d="M13.246,149.499H7.604
		c0,61.61,78.118,111.556,215.751,111.556l-12.526-28.001C101.907,230.586,32.712,195.875,13.246,149.499z"/>
	<path style="opacity:0.41;fill:#3E3B43;enable-background:new    ;" d="M173.45,149.035H7.604c0,8.131,1.374,16.057,4.053,23.693
		H184.05L173.45,149.035z"/>
</g>
<polygon style="opacity:0.58;fill:#77757E;enable-background:new    ;" points="499.475,362.972 168.233,362.972 336.315,256.003 
	"/>
<polygon style="fill:#ACAAB1;" points="168.233,362.972 168.233,333.156 228.034,267.089 173.45,191.274 173.45,149.035 
	299.087,149.035 323.998,149.035 504.396,149.035 504.396,191.274 439.674,267.089 499.475,333.156 499.475,362.972 
	336.315,303.913 "/>
<polygon style="opacity:0.26;fill:#3E3B43;enable-background:new    ;" points="503.447,149.035 467.102,149.035 467.102,191.274 
	402.38,267.089 462.181,333.156 462.181,362.972 498.526,362.972 498.526,333.156 438.725,267.089 503.447,191.274 "/>
<g style="opacity:0.79;">
	<polygon style="fill:#3E3B43;" points="504.396,149.035 323.998,149.035 299.087,149.035 173.45,149.035 173.45,172.728 
		504.396,172.728 	"/>
</g>
<polygon style="opacity:0.18;fill:#FFFFFF;enable-background:new    ;" points="397.706,149.395 192.868,354.233 335.055,304.273 
	336.246,304.705 491.557,149.395 "/>
<path d="M504.396,141.431H173.45H7.604c-4.2,0-7.604,3.405-7.604,7.604c0,8.871,1.484,17.501,4.355,25.797
	c0.087,0.302,0.188,0.599,0.31,0.885c8.248,22.977,27.26,43.321,55.54,58.864c38.699,21.268,92.742,32.838,156.607,33.575
	l-54.217,59.898c-1.265,1.398-1.966,3.217-1.966,5.103v29.815c0,0.292,0.02,0.578,0.052,0.861c0.009,0.075,0.023,0.149,0.034,0.224
	c0.03,0.211,0.067,0.421,0.115,0.626c0.018,0.08,0.041,0.159,0.062,0.239c0.054,0.202,0.115,0.399,0.184,0.594
	c0.026,0.073,0.052,0.147,0.08,0.219c0.081,0.208,0.172,0.411,0.271,0.609c0.026,0.053,0.049,0.106,0.076,0.159
	c0.262,0.498,0.577,0.962,0.938,1.387c0.055,0.065,0.114,0.126,0.171,0.188c0.132,0.145,0.268,0.285,0.41,0.419
	c0.069,0.065,0.139,0.129,0.211,0.192c0.154,0.135,0.313,0.262,0.479,0.384c0.045,0.032,0.083,0.071,0.128,0.102
	c0.015,0.01,0.032,0.017,0.048,0.028c0.287,0.201,0.59,0.38,0.904,0.54c0.054,0.027,0.108,0.053,0.163,0.079
	c0.63,0.302,1.305,0.519,2.017,0.639c0.073,0.012,0.146,0.023,0.219,0.033c0.343,0.048,0.69,0.08,1.046,0.08h331.243
	c0.02,0,0.039-0.003,0.059-0.003c0.078,0,0.155-0.009,0.233-0.012c0.21-0.008,0.419-0.021,0.624-0.046
	c0.087-0.01,0.172-0.026,0.259-0.04c0.201-0.031,0.398-0.069,0.593-0.116c0.082-0.019,0.163-0.041,0.244-0.063
	c0.206-0.057,0.408-0.122,0.606-0.195c0.067-0.024,0.134-0.047,0.201-0.073c0.249-0.099,0.493-0.21,0.728-0.335
	c0.014-0.007,0.028-0.013,0.043-0.02c0.254-0.137,0.499-0.288,0.735-0.452c0.014-0.01,0.03-0.017,0.045-0.027
	c0.043-0.03,0.08-0.067,0.123-0.097c0.17-0.126,0.337-0.255,0.496-0.394c0.072-0.063,0.143-0.128,0.212-0.193
	c0.14-0.132,0.275-0.27,0.405-0.412c0.061-0.066,0.123-0.131,0.18-0.199c0.162-0.191,0.315-0.388,0.459-0.594
	c0.014-0.02,0.031-0.04,0.046-0.061c0.159-0.234,0.304-0.48,0.437-0.731c0.026-0.05,0.048-0.1,0.073-0.151
	c0.1-0.202,0.194-0.408,0.277-0.619c0.028-0.073,0.054-0.146,0.08-0.22c0.069-0.195,0.131-0.392,0.185-0.594
	c0.021-0.081,0.044-0.161,0.063-0.242c0.048-0.206,0.084-0.415,0.115-0.626c0.011-0.076,0.026-0.15,0.034-0.227
	c0.032-0.284,0.053-0.572,0.053-0.864v-29.815c0-1.886-0.701-3.705-1.966-5.103l-55.315-61.112l60.382-70.731
	c1.175-1.377,1.821-3.127,1.821-4.938v-42.24C512,144.835,508.596,141.431,504.396,141.431z M496.792,165.124H181.054v-8.485
	h315.738V165.124z M165.846,156.639v8.485H17.312c-0.739-2.795-1.295-5.624-1.643-8.485H165.846z M23.424,180.331h142.422v10.943
	c0,1.595,0.501,3.149,1.433,4.443l41.079,57.057c-57.57-1.59-106.035-12.4-140.828-31.522
	C46.892,209.911,31.937,195.908,23.424,180.331z M212.812,355.368l123.465-43.381l119.85,43.381H212.812z M433.891,262.152
	c-2.482,2.908-2.42,7.206,0.146,10.04l57.835,63.895v16.045l-152.968-55.369c-1.649-0.597-3.454-0.606-5.109-0.023l-157.958,55.501
	v-16.154l57.835-63.895c2.406-2.658,2.629-6.636,0.533-9.547l-53.151-73.824v-8.491h315.738v8.139L433.891,262.152z"/>
</svg>